<svg width="400" height="400" viewBox="0 0 400 400" fill="none" xmlns="http://www.w3.org/2000/svg">
<path d="M283.378 183.378L269.244 197.6L252.889 213.867L231.378 235.467L222.4 244.356L191.911 274.845L188.267 278.578L96.8 369.956V308.978L100.533 305.333L127.289 278.578L139.911 265.956L161.422 244.356L170.4 235.467L183.022 222.845L191.911 213.867L213.511 192.356L226.133 179.733L252.889 152.978L269.244 169.245L283.378 183.378Z" fill="#F1F5F9"/>
<path d="M281.689 30.0444V91.0222L277.956 94.6667L251.2 121.422L247.467 125.156L238.578 134.044L195.467 177.156L186.578 186.133L164.978 207.644L156.089 216.622L125.6 247.022L109.244 230.756L95.1111 216.622L104.089 207.644L109.244 202.4L125.6 186.133L152.356 159.378L156.089 155.644L186.578 125.156L217.067 94.6667L233.333 78.4L281.689 30.0444Z" fill="#F1F5F9"/>
</svg>
